<svg width="48" height="48" viewBox="0 0 48 48" fill="none" xmlns="http://www.w3.org/2000/svg">
<g opacity="0.2">
<path d="M48 48H0V0H48V48ZM1.59502 46.405H46.405V1.59502H1.59502V46.405Z" fill="black"/>
<path d="M11.7798 16.4819H9.57007V15.0364C11.6801 15.0364 13.4579 15.0364 15.5846 15.0364V16.4819H13.3748V22.297H11.7632V16.4819H11.7798Z" fill="#231F20"/>
<path d="M27.4974 22.0977H25.703L23.8422 19.7218H22.6791V22.0977H21.0675V14.8536C22.2472 14.8536 23.3437 14.8536 24.5068 14.8536C26.2513 14.8536 27.1817 16.0167 27.1817 17.296C27.1651 18.243 26.8993 19.0738 25.5036 19.5722L27.4974 21.9814V22.0977ZM22.6791 16.2493V18.3593H24.5234C25.271 18.3593 25.5867 17.7944 25.5867 17.3458C25.5701 16.8474 25.2544 16.2493 24.5068 16.2493H22.6791Z" fill="#231F20"/>
<path d="M33.8608 22.0145V14.7539H35.4725V21.9979H33.8608V22.0145Z" fill="#231F20"/>
<path d="M14.3717 30.6043L14.2721 28.3281V25.8857H15.9003V33.1298H14.5047L10.8993 28.4943L10.9657 30.8702V33.1298H9.32086V25.8857H10.7165L14.3717 30.6043Z" fill="#231F20"/>
<path d="M27.3645 31.9835C26.6168 32.7145 25.6531 33.0468 24.5732 33.0468C21.8151 33.0468 20.7019 31.269 20.7019 29.2919C20.6853 27.4144 21.9148 25.4539 24.5732 25.4539C25.5701 25.4539 26.4839 25.836 27.2315 26.567L26.218 27.5639C25.7861 27.1319 25.1547 26.9658 24.5732 26.9658C22.9283 26.9658 22.2803 28.2451 22.297 29.2919C22.3136 30.3552 22.8785 31.5515 24.5732 31.5515C25.1547 31.5515 25.919 31.2856 26.351 30.8536L27.3645 31.9835Z" fill="#231F20"/>
<path d="M36.4029 32H32.6812L32.1495 33.2461H30.405L33.6615 26.0021H35.4226L38.6791 33.2461H36.9346L36.4029 32ZM34.542 27.6303L33.2959 30.5711H35.7881L34.542 27.6303Z" fill="#231F20"/>
</g>
</svg>
